<svg width="31" height="26" viewBox="0 0 31 26" fill="none" xmlns="http://www.w3.org/2000/svg">
<path fill-rule="evenodd" clip-rule="evenodd" d="M27.7889 0.177874C28.1701 0.0203761 28.5873 -0.0339439 28.9971 0.0205673C29.4068 0.0750784 29.7943 0.236428 30.119 0.487823C30.4437 0.739217 30.6939 1.07147 30.8434 1.44999C30.993 1.82851 31.0364 2.23946 30.9693 2.64008L27.4712 23.4719C27.1319 25.4813 24.8862 26.6337 23.0091 25.6328C21.4389 24.7954 19.1069 23.5052 17.0092 22.159C15.9604 21.4852 12.7476 19.3274 13.1425 17.7919C13.4818 16.479 18.8801 11.5455 21.9649 8.61237C23.1757 7.46001 22.6235 6.79524 21.1937 7.85523C17.6431 10.487 11.9425 14.4893 10.0577 15.6159C8.39501 16.6092 7.52819 16.7788 6.49171 16.6092C4.60075 16.3003 2.84706 15.8218 1.41573 15.2388C-0.518413 14.4514 -0.424328 11.8408 1.41419 11.0806L27.7889 0.177874Z" fill="#777474"/>
</svg>
